<mxfile host="app.diagrams.net" agent="Mozilla/5.0 (Windows NT 10.0; Win64; x64) AppleWebKit/537.36 (KHTML, like Gecko) Chrome/134.0.0.0 Safari/537.36" version="26.1.1">
  <diagram name="第1頁" id="wC7kurbf7wUDReqNRRzc">
    <mxGraphModel dx="4680" dy="2200" grid="1" gridSize="10" guides="1" tooltips="1" connect="1" arrows="1" fold="1" page="1" pageScale="1" pageWidth="1169" pageHeight="827" math="0" shadow="0">
      <root>
        <mxCell id="0" />
        <mxCell id="1" parent="0" />
        <mxCell id="Bq2czI2fm5DyTAyvNpCL-82" value="" style="rounded=1;whiteSpace=wrap;html=1;" vertex="1" parent="1">
          <mxGeometry x="1388" y="606.51" width="732" height="686.22" as="geometry" />
        </mxCell>
        <mxCell id="Bq2czI2fm5DyTAyvNpCL-23" value="" style="group;movable=0;resizable=0;rotatable=0;deletable=0;editable=0;locked=1;connectable=0;strokeWidth=5;" vertex="1" connectable="0" parent="1">
          <mxGeometry x="234" y="140" width="3040" height="410" as="geometry" />
        </mxCell>
        <mxCell id="Bq2czI2fm5DyTAyvNpCL-4" value="&lt;div style=&quot;&quot;&gt;&lt;font style=&quot;font-size: 45px;&quot;&gt;&lt;b&gt;&lt;span style=&quot;font-family: 標楷體; background-color: transparent; color: light-dark(rgb(0, 0, 0), rgb(255, 255, 255));&quot;&gt;網絡轉譯流程（&lt;/span&gt;&lt;span style=&quot;background-color: transparent; color: light-dark(rgb(0, 0, 0), rgb(255, 255, 255)); font-family: 標楷體;&quot;&gt;Translation）&lt;/span&gt;&lt;/b&gt;&lt;/font&gt;&lt;/div&gt;" style="rounded=0;whiteSpace=wrap;html=1;movable=1;resizable=1;rotatable=1;deletable=1;editable=1;locked=0;connectable=1;align=center;strokeColor=default;strokeWidth=3;verticalAlign=middle;fontFamily=Helvetica;fontSize=45;fontColor=default;fillColor=default;" vertex="1" parent="Bq2czI2fm5DyTAyvNpCL-23">
          <mxGeometry width="3040" height="155.13513513513513" as="geometry" />
        </mxCell>
        <mxCell id="Bq2czI2fm5DyTAyvNpCL-8" value="&lt;div style=&quot;&quot;&gt;&lt;span id=&quot;docs-internal-guid-ae83f5a6-7fff-8fde-e0c6-65114a091cd3&quot;&gt;&lt;span style=&quot;color: rgb(41, 41, 41); background-color: rgb(255, 255, 255); font-weight: 700; font-variant-numeric: normal; font-variant-east-asian: normal; font-variant-alternates: normal; font-variant-position: normal; font-variant-emoji: normal; vertical-align: baseline; white-space-collapse: preserve;&quot;&gt;&lt;font face=&quot;標楷體&quot;&gt;利益綑綁（Interessement）&lt;/font&gt;&lt;/span&gt;&lt;/span&gt;&lt;/div&gt;" style="rounded=0;whiteSpace=wrap;html=1;movable=1;resizable=1;rotatable=1;deletable=1;editable=1;locked=0;connectable=1;flipH=1;strokeColor=default;align=center;verticalAlign=middle;fontFamily=Helvetica;fontSize=45;fontColor=default;fillColor=default;strokeWidth=3;" vertex="1" parent="Bq2czI2fm5DyTAyvNpCL-23">
          <mxGeometry x="760" y="155.13513513513513" width="760" height="155.13513513513513" as="geometry" />
        </mxCell>
        <mxCell id="Bq2czI2fm5DyTAyvNpCL-9" value="&lt;div style=&quot;&quot;&gt;&lt;span id=&quot;docs-internal-guid-02cee520-7fff-a714-8f82-c0ed73381c71&quot;&gt;&lt;span style=&quot;color: rgb(41, 41, 41); background-color: rgb(255, 255, 255); font-weight: 700; font-variant-numeric: normal; font-variant-east-asian: normal; font-variant-alternates: normal; font-variant-position: normal; font-variant-emoji: normal; vertical-align: baseline; white-space-collapse: preserve;&quot;&gt;&lt;font face=&quot;標楷體&quot;&gt;徵召&lt;/font&gt;&lt;/span&gt;&lt;/span&gt;&lt;/div&gt;&lt;div style=&quot;&quot;&gt;&lt;span&gt;&lt;span style=&quot;color: rgb(41, 41, 41); background-color: rgb(255, 255, 255); font-weight: 700; font-variant-numeric: normal; font-variant-east-asian: normal; font-variant-alternates: normal; font-variant-position: normal; font-variant-emoji: normal; vertical-align: baseline; white-space-collapse: preserve;&quot;&gt;&lt;font face=&quot;標楷體&quot;&gt;（Enrollment）&lt;/font&gt;&lt;/span&gt;&lt;/span&gt;&lt;/div&gt;" style="rounded=0;whiteSpace=wrap;html=1;movable=1;resizable=1;rotatable=1;deletable=1;editable=1;locked=0;connectable=1;flipH=1;strokeColor=default;align=center;verticalAlign=middle;fontFamily=Helvetica;fontSize=45;fontColor=default;fillColor=default;strokeWidth=3;" vertex="1" parent="Bq2czI2fm5DyTAyvNpCL-23">
          <mxGeometry x="1520" y="155.13513513513513" width="760" height="155.13513513513513" as="geometry" />
        </mxCell>
        <mxCell id="Bq2czI2fm5DyTAyvNpCL-10" value="&lt;div style=&quot;&quot;&gt;&lt;span id=&quot;docs-internal-guid-2bd36903-7fff-b662-3506-067318d8adca&quot;&gt;&lt;span style=&quot;font-family: DFKai-SB; color: rgb(41, 41, 41); background-color: rgb(255, 255, 255); font-weight: 700; font-variant-numeric: normal; font-variant-east-asian: normal; font-variant-alternates: normal; font-variant-position: normal; font-variant-emoji: normal; vertical-align: baseline; white-space-collapse: preserve;&quot;&gt;&lt;font&gt;動員&lt;/font&gt;&lt;/span&gt;&lt;/span&gt;&lt;/div&gt;&lt;div style=&quot;&quot;&gt;&lt;span&gt;&lt;span style=&quot;font-family: DFKai-SB; color: rgb(41, 41, 41); background-color: rgb(255, 255, 255); font-weight: 700; font-variant-numeric: normal; font-variant-east-asian: normal; font-variant-alternates: normal; font-variant-position: normal; font-variant-emoji: normal; vertical-align: baseline; white-space-collapse: preserve;&quot;&gt;&lt;font&gt;（Mobilization）&lt;/font&gt;&lt;/span&gt;&lt;/span&gt;&lt;/div&gt;" style="rounded=0;whiteSpace=wrap;html=1;movable=1;resizable=1;rotatable=1;deletable=1;editable=1;locked=0;connectable=1;flipH=1;strokeColor=default;align=center;verticalAlign=middle;fontFamily=Helvetica;fontSize=45;fontColor=default;fillColor=default;strokeWidth=3;" vertex="1" parent="Bq2czI2fm5DyTAyvNpCL-23">
          <mxGeometry x="2279.9999999999995" y="155.13513513513513" width="760" height="155.13513513513513" as="geometry" />
        </mxCell>
        <mxCell id="Bq2czI2fm5DyTAyvNpCL-11" value="&lt;div style=&quot;&quot;&gt;&lt;b&gt;&lt;font face=&quot;標楷體&quot;&gt;&lt;span id=&quot;docs-internal-guid-4d6b0944-7fff-3b9e-f96f-b2088e79abd8&quot;&gt;&lt;span style=&quot;color: rgb(41, 41, 41); background-color: rgb(255, 255, 255); font-variant-numeric: normal; font-variant-east-asian: normal; font-variant-alternates: normal; font-variant-position: normal; font-variant-emoji: normal; vertical-align: baseline; white-space-collapse: preserve;&quot;&gt;問題化&lt;/span&gt;&lt;/span&gt;&lt;span style=&quot;background-color: rgb(255, 255, 255); color: rgb(41, 41, 41); white-space-collapse: preserve;&quot;&gt;（Problematization）&lt;/span&gt;&lt;/font&gt;&lt;/b&gt;&lt;/div&gt;" style="rounded=0;whiteSpace=wrap;html=1;movable=1;resizable=1;rotatable=1;deletable=1;editable=1;locked=0;connectable=1;flipH=1;fontSize=45;align=center;strokeColor=default;strokeWidth=3;verticalAlign=middle;fontFamily=Helvetica;fontColor=default;fillColor=default;" vertex="1" parent="Bq2czI2fm5DyTAyvNpCL-23">
          <mxGeometry y="155.13513513513513" width="760" height="155.13513513513513" as="geometry" />
        </mxCell>
        <mxCell id="Bq2czI2fm5DyTAyvNpCL-14" value="" style="triangle;whiteSpace=wrap;html=1;direction=south;fontStyle=1;strokeWidth=3;" vertex="1" parent="Bq2czI2fm5DyTAyvNpCL-23">
          <mxGeometry x="311.38888888888886" y="343.5135135135135" width="84.44444444444444" height="66.48648648648648" as="geometry" />
        </mxCell>
        <mxCell id="Bq2czI2fm5DyTAyvNpCL-16" value="" style="triangle;whiteSpace=wrap;html=1;direction=south;fontStyle=1;strokeWidth=3;" vertex="1" parent="Bq2czI2fm5DyTAyvNpCL-23">
          <mxGeometry x="1097.7777777777778" y="343.5135135135135" width="84.44444444444444" height="66.48648648648648" as="geometry" />
        </mxCell>
        <mxCell id="Bq2czI2fm5DyTAyvNpCL-17" value="" style="triangle;whiteSpace=wrap;html=1;direction=south;fontStyle=1;strokeWidth=3;" vertex="1" parent="Bq2czI2fm5DyTAyvNpCL-23">
          <mxGeometry x="1857.7777777777783" y="343.5135135135135" width="84.44444444444444" height="66.48648648648648" as="geometry" />
        </mxCell>
        <mxCell id="Bq2czI2fm5DyTAyvNpCL-18" value="" style="triangle;whiteSpace=wrap;html=1;direction=south;fontStyle=1;strokeWidth=3;" vertex="1" parent="Bq2czI2fm5DyTAyvNpCL-23">
          <mxGeometry x="2617.777777777778" y="343.5135135135135" width="84.44444444444444" height="66.48648648648648" as="geometry" />
        </mxCell>
        <mxCell id="Bq2czI2fm5DyTAyvNpCL-30" value="" style="endArrow=classic;html=1;rounded=0;fontSize=45;strokeWidth=15;strokeColor=default;align=center;verticalAlign=middle;fontFamily=Helvetica;fontColor=default;labelBackgroundColor=default;" edge="1" parent="1">
          <mxGeometry relative="1" as="geometry">
            <mxPoint x="240" y="960" as="sourcePoint" />
            <mxPoint x="730" y="960" as="targetPoint" />
          </mxGeometry>
        </mxCell>
        <mxCell id="Bq2czI2fm5DyTAyvNpCL-34" value="&lt;font face=&quot;標楷體&quot;&gt;&lt;span style=&quot;font-size: 45px;&quot;&gt;&lt;b&gt;過去路徑&lt;/b&gt;&lt;/span&gt;&lt;/font&gt;&lt;div&gt;&lt;font face=&quot;標楷體&quot;&gt;&lt;span style=&quot;font-size: 45px;&quot;&gt;&lt;b&gt;（Past Path）&lt;/b&gt;&lt;/span&gt;&lt;/font&gt;&lt;/div&gt;" style="edgeLabel;html=1;align=center;verticalAlign=middle;resizable=1;points=[];labelBorderColor=default;textShadow=0;movable=1;rotatable=1;deletable=1;editable=1;locked=0;connectable=1;rounded=0;strokeColor=default;strokeWidth=15;fontFamily=Helvetica;fontSize=45;fontColor=default;labelBackgroundColor=default;" vertex="1" connectable="0" parent="Bq2czI2fm5DyTAyvNpCL-30">
          <mxGeometry x="-0.0086" y="-1" relative="1" as="geometry">
            <mxPoint x="-12" y="-1" as="offset" />
          </mxGeometry>
        </mxCell>
        <mxCell id="Bq2czI2fm5DyTAyvNpCL-73" value="" style="endArrow=classic;html=1;rounded=0;fontSize=45;strokeWidth=15;" edge="1" parent="1">
          <mxGeometry relative="1" as="geometry">
            <mxPoint x="240" y="1370" as="sourcePoint" />
            <mxPoint x="3281.54" y="1379.92" as="targetPoint" />
          </mxGeometry>
        </mxCell>
        <mxCell id="Bq2czI2fm5DyTAyvNpCL-74" value="Label" style="edgeLabel;resizable=0;html=1;;align=center;verticalAlign=middle;" connectable="0" vertex="1" parent="Bq2czI2fm5DyTAyvNpCL-73">
          <mxGeometry relative="1" as="geometry" />
        </mxCell>
        <mxCell id="Bq2czI2fm5DyTAyvNpCL-75" value="Text" style="edgeLabel;html=1;align=center;verticalAlign=middle;resizable=0;points=[];" vertex="1" connectable="0" parent="Bq2czI2fm5DyTAyvNpCL-73">
          <mxGeometry x="-0.0178" y="2" relative="1" as="geometry">
            <mxPoint x="-1" as="offset" />
          </mxGeometry>
        </mxCell>
        <mxCell id="Bq2czI2fm5DyTAyvNpCL-76" value="&lt;font face=&quot;標楷體&quot;&gt;&lt;span style=&quot;font-size: 45px;&quot;&gt;&lt;b&gt;現有路徑&lt;/b&gt;&lt;/span&gt;&lt;/font&gt;&lt;div&gt;&lt;font face=&quot;標楷體&quot;&gt;&lt;span style=&quot;font-size: 45px;&quot;&gt;&lt;b&gt;（Current Path）&lt;/b&gt;&lt;/span&gt;&lt;/font&gt;&lt;/div&gt;" style="edgeLabel;html=1;align=center;verticalAlign=middle;resizable=0;points=[];labelBorderColor=default;" vertex="1" connectable="0" parent="Bq2czI2fm5DyTAyvNpCL-73">
          <mxGeometry x="-0.0086" y="-1" relative="1" as="geometry">
            <mxPoint x="6" y="4" as="offset" />
          </mxGeometry>
        </mxCell>
        <mxCell id="Bq2czI2fm5DyTAyvNpCL-93" value="現有定位&lt;div&gt;(Current Position)&lt;/div&gt;" style="shape=step;perimeter=stepPerimeter;whiteSpace=wrap;html=1;fixedSize=1;fontSize=45;fontStyle=1;fontFamily=標楷體;dashed=1;dashPattern=8 8;strokeColor=default;strokeWidth=3;align=center;verticalAlign=middle;fontColor=default;fillColor=default;" vertex="1" parent="1">
          <mxGeometry x="750" y="789.62" width="480" height="320" as="geometry" />
        </mxCell>
        <mxCell id="Bq2czI2fm5DyTAyvNpCL-94" value="新定位&lt;div&gt;(New Position)&lt;/div&gt;" style="shape=step;perimeter=stepPerimeter;whiteSpace=wrap;html=1;fixedSize=1;fontSize=45;fontStyle=1;fontFamily=標楷體;dashed=1;dashPattern=8 8;strokeWidth=3;" vertex="1" parent="1">
          <mxGeometry x="2280" y="789.62" width="480" height="320" as="geometry" />
        </mxCell>
        <mxCell id="Bq2czI2fm5DyTAyvNpCL-97" value="" style="group" vertex="1" connectable="0" parent="1">
          <mxGeometry x="1250" y="580" width="960" height="696.22" as="geometry" />
        </mxCell>
        <mxCell id="Bq2czI2fm5DyTAyvNpCL-66" value="" style="group;movable=0;resizable=0;rotatable=0;deletable=0;editable=0;locked=1;connectable=0;" vertex="1" connectable="0" parent="Bq2czI2fm5DyTAyvNpCL-97">
          <mxGeometry x="152" y="30.004719101123584" width="703.5" height="659.9952808988764" as="geometry" />
        </mxCell>
        <mxCell id="Bq2czI2fm5DyTAyvNpCL-51" value="" style="group;movable=0;resizable=0;rotatable=0;deletable=0;editable=0;locked=1;connectable=0;" vertex="1" connectable="0" parent="Bq2czI2fm5DyTAyvNpCL-66">
          <mxGeometry x="52" y="-10" width="600" height="177.52808988764045" as="geometry" />
        </mxCell>
        <mxCell id="Bq2czI2fm5DyTAyvNpCL-35" value="&lt;b&gt;靜態基礎要素&lt;/b&gt;" style="rounded=0;whiteSpace=wrap;html=1;fontSize=45;fontFamily=標楷體;" vertex="1" parent="Bq2czI2fm5DyTAyvNpCL-51">
          <mxGeometry width="600" height="88.76404494382022" as="geometry" />
        </mxCell>
        <mxCell id="Bq2czI2fm5DyTAyvNpCL-37" value="&lt;font face=&quot;標楷體&quot; style=&quot;font-size: 45px;&quot;&gt;&lt;b&gt;流程&lt;/b&gt;&lt;/font&gt;" style="rounded=0;whiteSpace=wrap;html=1;" vertex="1" parent="Bq2czI2fm5DyTAyvNpCL-51">
          <mxGeometry y="88.76404494382022" width="200" height="88.76404494382022" as="geometry" />
        </mxCell>
        <mxCell id="Bq2czI2fm5DyTAyvNpCL-38" value="&lt;font face=&quot;標楷體&quot; style=&quot;font-size: 45px;&quot;&gt;&lt;b&gt;定位&lt;/b&gt;&lt;/font&gt;" style="rounded=0;whiteSpace=wrap;html=1;" vertex="1" parent="Bq2czI2fm5DyTAyvNpCL-51">
          <mxGeometry x="400" y="88.76404494382022" width="200" height="88.76404494382022" as="geometry" />
        </mxCell>
        <mxCell id="Bq2czI2fm5DyTAyvNpCL-39" value="&lt;font face=&quot;標楷體&quot;&gt;&lt;span style=&quot;font-size: 45px;&quot;&gt;&lt;b&gt;路徑&lt;/b&gt;&lt;/span&gt;&lt;/font&gt;" style="rounded=0;whiteSpace=wrap;html=1;" vertex="1" parent="Bq2czI2fm5DyTAyvNpCL-51">
          <mxGeometry x="200" y="88.76404494382022" width="200" height="88.76404494382022" as="geometry" />
        </mxCell>
        <mxCell id="Bq2czI2fm5DyTAyvNpCL-53" value="" style="group;movable=0;resizable=0;rotatable=0;deletable=0;editable=0;locked=1;connectable=0;" vertex="1" connectable="0" parent="Bq2czI2fm5DyTAyvNpCL-66">
          <mxGeometry x="52" y="446.24719101123605" width="600" height="177.52808988764045" as="geometry" />
        </mxCell>
        <mxCell id="Bq2czI2fm5DyTAyvNpCL-54" value="&lt;b&gt;動態核心行動&lt;/b&gt;" style="rounded=0;whiteSpace=wrap;html=1;fontSize=45;fontFamily=標楷體;" vertex="1" parent="Bq2czI2fm5DyTAyvNpCL-53">
          <mxGeometry width="600" height="88.76404494382022" as="geometry" />
        </mxCell>
        <mxCell id="Bq2czI2fm5DyTAyvNpCL-55" value="&lt;font face=&quot;標楷體&quot; style=&quot;font-size: 45px;&quot;&gt;&lt;b&gt;感知&lt;/b&gt;&lt;/font&gt;" style="rounded=0;whiteSpace=wrap;html=1;" vertex="1" parent="Bq2czI2fm5DyTAyvNpCL-53">
          <mxGeometry y="88.76404494382022" width="200" height="88.76404494382022" as="geometry" />
        </mxCell>
        <mxCell id="Bq2czI2fm5DyTAyvNpCL-56" value="&lt;font face=&quot;標楷體&quot; style=&quot;font-size: 45px;&quot;&gt;&lt;b&gt;轉型&lt;/b&gt;&lt;/font&gt;" style="rounded=0;whiteSpace=wrap;html=1;" vertex="1" parent="Bq2czI2fm5DyTAyvNpCL-53">
          <mxGeometry x="400" y="88.76404494382022" width="200" height="88.76404494382022" as="geometry" />
        </mxCell>
        <mxCell id="Bq2czI2fm5DyTAyvNpCL-57" value="&lt;font face=&quot;標楷體&quot;&gt;&lt;span style=&quot;font-size: 45px;&quot;&gt;&lt;b&gt;抓取&lt;/b&gt;&lt;/span&gt;&lt;/font&gt;" style="rounded=0;whiteSpace=wrap;html=1;" vertex="1" parent="Bq2czI2fm5DyTAyvNpCL-53">
          <mxGeometry x="200" y="88.76404494382022" width="200" height="88.76404494382022" as="geometry" />
        </mxCell>
        <mxCell id="Bq2czI2fm5DyTAyvNpCL-64" value="&lt;span style=&quot;font-weight: 700; text-wrap-mode: wrap; font-size: 45px;&quot;&gt;&lt;font face=&quot;標楷體&quot;&gt;資源&lt;/font&gt;&lt;/span&gt;&lt;div&gt;&lt;div style=&quot;font-weight: 700; text-wrap-mode: wrap;&quot;&gt;&lt;span style=&quot;font-size: 45px;&quot;&gt;&lt;font face=&quot;標楷體&quot;&gt;編排&lt;/font&gt;&lt;/span&gt;&lt;/div&gt;&lt;/div&gt;" style="html=1;shadow=0;dashed=0;align=center;verticalAlign=middle;shape=mxgraph.arrows2.twoWayArrow;dy=0.6;dx=35;direction=south;movable=0;resizable=0;rotatable=0;deletable=0;editable=0;locked=1;connectable=0;" vertex="1" parent="Bq2czI2fm5DyTAyvNpCL-66">
          <mxGeometry x="262" y="192.7774157303371" width="180" height="235.6685393258427" as="geometry" />
        </mxCell>
        <mxCell id="Bq2czI2fm5DyTAyvNpCL-95" value="" style="strokeWidth=8;html=1;shape=mxgraph.flowchart.annotation_2;align=left;labelPosition=right;pointerEvents=1;" vertex="1" parent="Bq2czI2fm5DyTAyvNpCL-97">
          <mxGeometry x="70" y="49" width="50" height="640" as="geometry" />
        </mxCell>
        <mxCell id="Bq2czI2fm5DyTAyvNpCL-96" value="" style="strokeWidth=8;html=1;shape=mxgraph.flowchart.annotation_2;align=left;labelPosition=right;pointerEvents=1;direction=west;" vertex="1" parent="Bq2czI2fm5DyTAyvNpCL-97">
          <mxGeometry x="890" y="50" width="50" height="640" as="geometry" />
        </mxCell>
        <mxCell id="Bq2czI2fm5DyTAyvNpCL-98" value="" style="endArrow=classic;html=1;rounded=0;fontSize=45;strokeWidth=15;strokeColor=default;align=center;verticalAlign=middle;fontFamily=Helvetica;fontColor=default;labelBackgroundColor=default;" edge="1" parent="1">
          <mxGeometry relative="1" as="geometry">
            <mxPoint x="2790" y="960" as="sourcePoint" />
            <mxPoint x="3280" y="960" as="targetPoint" />
          </mxGeometry>
        </mxCell>
        <mxCell id="Bq2czI2fm5DyTAyvNpCL-99" value="&lt;font face=&quot;標楷體&quot;&gt;&lt;span style=&quot;font-size: 45px;&quot;&gt;&lt;b&gt;新路徑&lt;/b&gt;&lt;/span&gt;&lt;/font&gt;&lt;div&gt;&lt;font face=&quot;標楷體&quot;&gt;&lt;span style=&quot;font-size: 45px;&quot;&gt;&lt;b&gt;（New Path）&lt;/b&gt;&lt;/span&gt;&lt;/font&gt;&lt;/div&gt;" style="edgeLabel;html=1;align=center;verticalAlign=middle;resizable=1;points=[];labelBorderColor=default;textShadow=0;movable=1;rotatable=1;deletable=1;editable=1;locked=0;connectable=1;rounded=0;strokeColor=default;strokeWidth=15;fontFamily=Helvetica;fontSize=45;fontColor=default;labelBackgroundColor=default;" vertex="1" connectable="0" parent="Bq2czI2fm5DyTAyvNpCL-98">
          <mxGeometry x="-0.0086" y="-1" relative="1" as="geometry">
            <mxPoint x="-12" y="-1" as="offset" />
          </mxGeometry>
        </mxCell>
      </root>
    </mxGraphModel>
  </diagram>
</mxfile>
